# xmcd
# Track frame offsets:
# 150
# 17075
# 34427
# 51712
# 65192
# 79417
# 94385
# 108215
# 123502
# 135575
# 151045
# 170480
# 189005
# 205960
# 217842
#
# Disc length: 3060 seconds
# Revision: 0
# Processed by: cddbd v1.5.2PL0 Copyright (c) Steve Scherf et al.
# Submitted via: VisiTrax 2.11.3.279 - For more info visit www.synapsa.com
#
DISCID=d60bf20f
DTITLE=Kenny Rogers - With Love  Volume 2
DYEAR=1997
DGENRE=Country
TTITLE0=When A Man Loves A Woman
TTITLE1=Lady
TTITLE2=Endless Love
TTITLE3=I Will Always Love You
TTITLE4=You Are So Beautiful
TTITLE5=Misty
TTITLE6=Love Me Tender
TTITLE7=Unforgettable
TTITLE8=It Had To Be You
TTITLE9=When I Fall In Love
TTITLE10=I Only Have Eyes For You
TTITLE11=My Funny Valentine
TTITLE12=You Decorated My Life
TTITLE13=Always
TTITLE14=Love Is A Many Splendoured Thing
EXTD=
EXTT0=
EXTT1=
EXTT2=
EXTT3=
EXTT4=
EXTT5=
EXTT6=
EXTT7=
EXTT8=
EXTT9=
EXTT10=
EXTT11=
EXTT12=
EXTT13=
EXTT14=
PLAYORDER=
